<svg xml:space="preserve" viewBox="127.4 126 352.3 1840" width="352.3" height="1840" xmlns="http://www.w3.org/2000/svg">
   <path
      d="M472.9 185.9V126H133.8v236.8H185V185.9ZM282.9 460v185.2h51.3V460h87v198.2h51.7v-258H133.8v262.9H185V460Zm35.8 457.1c4.4-12.1 9.6-32.4 15-54 6.2-24.5 12.7-49.7 18.6-65.9 7.6-20.7 17.6-30.7 30.7-30.7 35.1 0 47.6 36.6 47.6 70.9 0 23-5.4 42.2-15.6 55.5-10.3 13.4-25.4 20.9-44.7 22.2l-6.7.4 1.8 58.2 7-.3c66.8-2.5 106.8-53.5 106.8-136.5 0-35-9.1-67.1-25.6-90.6-17.8-25.3-43.5-39.2-72.3-39.2-20.3 0-37.8 7-52 20.8-11.3 10.9-20.7 26.3-27.7 45.7-6.1 16.9-12.1 40.2-17.8 62.6-5.9 23.1-11.5 44.9-16.6 57.5-9.3 23.3-20.4 32.8-38.5 32.8-24.6 0-50.8-20.9-50.8-79.6 0-21 5.1-90 70.8-94.6l6.8-.5-2.4-56.6-6.8.1c-73.2 1.5-118.7 59.7-118.7 152 0 36.7 9.6 70.8 26.9 96 18.9 27.4 46 42.5 76.5 42.5 42.3.2 71.9-23 87.7-68.7zm102.5 73.4V1105H133.8v59.9h287.4v114.6h51.7v-289zm58.5 467.7c0-46.6-15.8-89.3-44.6-120.4-32.1-34.6-78.4-52.9-133.8-52.9-48.7 0-92.9 17.1-124.5 48-31.8 31.3-49.4 75.4-49.4 124.3 0 53.4 19.1 98.1 55.1 129.3 32.1 27.8 76.1 43 123.8 43 47.1 0 90.5-16.4 122.1-46.2 33.5-31.6 51.3-74.8 51.3-125.1zm-302.4-1c0-88.4 77.7-112 123.5-112 39.1 0 71.8 10.6 94.6 30.6 22.5 19.8 34.4 48.1 34.4 81.8 0 33.6-12.7 62-36.6 82.2-22.5 18.9-53.6 29.3-87.8 29.3-62 .1-128.1-29.3-128.1-111.9zm295.6 450.9h-247l247-171.7V1678H133.8v57.9h248.1l-248.1 170.7v59.4h339.1z"
      style="fill:#f0f0f0;fill-opacity:1" />
</svg>