<svg xml:space="preserve" viewBox="127.4 126 352.33 1840.03" xmlns="http://www.w3.org/2000/svg">
   <path
      d="M134.2 1906.1v59.9h339.1v-236.8h-51.2v176.9zm190-274.1v-185.2h-51.3V1632h-87v-198.2h-51.7v258h339.1v-262.9h-51.2V1632Zm-35.8-457.1c-4.4 12.1-9.6 32.4-15 54-6.2 24.5-12.7 49.7-18.6 65.9-7.6 20.7-17.6 30.7-30.7 30.7-35.1 0-47.6-36.6-47.6-70.9 0-23 5.4-42.2 15.6-55.5 10.3-13.4 25.4-20.9 44.7-22.2l6.7-.4-1.8-58.2-7 .3c-66.8 2.5-106.8 53.5-106.8 136.5 0 35 9.1 67.1 25.6 90.6 17.8 25.3 43.5 39.2 72.3 39.2 20.3 0 37.8-7 52-20.8 11.3-10.9 20.7-26.3 27.7-45.7 6.1-16.9 12.1-40.2 17.8-62.6 5.9-23.1 11.5-44.9 16.6-57.5 9.3-23.3 20.4-32.8 38.5-32.8 24.6 0 50.8 20.9 50.8 79.6 0 21-5.1 90-70.8 94.6l-6.8.5 2.4 56.6 6.8-.1c73.2-1.5 118.7-59.7 118.7-152 0-36.7-9.6-70.8-26.9-96-18.9-27.4-46-42.5-76.5-42.5-42.3-.2-71.9 23-87.7 68.7zm-102.5-73.4V987h287.4v-59.9H185.9V812.5h-51.7v289zm-58.5-467.7c0 46.6 15.8 89.3 44.6 120.4 32.1 34.6 78.4 52.9 133.8 52.9 48.7 0 92.9-17.1 124.5-48 31.8-31.3 49.4-75.4 49.4-124.3 0-53.4-19.1-98.1-55.1-129.3-32.1-27.8-76.1-43-123.8-43-47.1 0-90.5 16.4-122.1 46.2-33.5 31.6-51.3 74.8-51.3 125.1zm302.4 1c0 88.4-77.7 112-123.5 112-39.1 0-71.8-10.6-94.6-30.6-22.5-19.8-34.4-48.1-34.4-81.8 0-33.6 12.7-62 36.6-82.2 22.5-18.9 53.6-29.3 87.8-29.3 62-.1 128.1 29.3 128.1 111.9zM134.2 183.9h247l-247 171.7V414h339.1v-57.9H225.2l248.1-170.7V126H134.2Z"
      style="fill:#f0f0f0;" />
</svg>