<svg xmlns="http://www.w3.org/2000/svg" viewBox="127.4 126 1840.03 352.33">
	<path
		d="M187.3 132.8h-59.9v339.1h236.8v-51.2H187.3zm274.1 190h185.2v-51.3H461.4v-87h198.2v-51.7h-258v339.1h262.9v-51.2H461.4zM918.5 287c-12.1-4.4-32.4-9.6-54-15-24.5-6.2-49.7-12.7-65.9-18.6-20.7-7.6-30.7-17.6-30.7-30.7 0-35.1 36.6-47.6 70.9-47.6 23 0 42.2 5.4 55.5 15.6 13.4 10.3 20.9 25.4 22.2 44.7l.4 6.7 58.2-1.8-.3-7c-2.5-66.8-53.5-106.8-136.5-106.8-35 0-67.1 9.1-90.6 25.6-25.3 17.8-39.2 43.5-39.2 72.3 0 20.3 7 37.8 20.8 52 10.9 11.3 26.3 20.7 45.7 27.7 16.9 6.1 40.2 12.1 62.6 17.8 23.1 5.9 44.9 11.5 57.5 16.6 23.3 9.3 32.8 20.4 32.8 38.5 0 24.6-20.9 50.8-79.6 50.8-21 0-90-5.1-94.6-70.8l-.5-6.8-56.6 2.4.1 6.8c1.5 73.2 59.7 118.7 152 118.7 36.7 0 70.8-9.6 96-26.9 27.4-18.9 42.5-46 42.5-76.5.2-42.3-23-71.9-68.7-87.7zm73.4-102.5h114.5v287.4h59.9V184.5h114.6v-51.7h-289zm467.7-58.5c-46.6 0-89.3 15.8-120.4 44.6-34.6 32.1-52.9 78.4-52.9 133.8 0 48.7 17.1 92.9 48 124.5 31.3 31.8 75.4 49.4 124.3 49.4 53.4 0 98.1-19.1 129.3-55.1 27.8-32.1 43-76.1 43-123.8 0-47.1-16.4-90.5-46.2-122.1-31.6-33.5-74.8-51.3-125.1-51.3zm-1 302.4c-88.4 0-112-77.7-112-123.5 0-39.1 10.6-71.8 30.6-94.6 19.8-22.5 48.1-34.4 81.8-34.4 33.6 0 62 12.7 82.2 36.6 18.9 22.5 29.3 53.6 29.3 87.8.1 62-29.3 128.1-111.9 128.1zm450.9-295.6v247l-171.7-247h-58.4v339.1h57.9V223.8L1908 471.9h59.4V132.8z"
		style="fill:#f0f0f0" />
</svg>